<?xml version="1.0" encoding="UTF-8" standalone="no"?><!DOCTYPE svg PUBLIC "-//W3C//DTD SVG 1.1//EN" "http://www.w3.org/Graphics/SVG/1.1/DTD/svg11.dtd"><svg width="2481px" height="3508px" version="1.1" xmlns="http://www.w3.org/2000/svg" xmlns:xlink="http://www.w3.org/1999/xlink" xml:space="preserve" xmlns:serif="http://www.serif.com/" style="fill-rule:evenodd;clip-rule:evenodd;stroke-linejoin:round;stroke-miterlimit:2;"><g transform="matrix(4.166667,0,0,4.166667,0,0)"><g id="Warstwa-1" serif:id="Warstwa 1" transform="matrix(3.495238,0,0,3.495238,-79.17167,-93.965499)"><g id="g6" transform="matrix(1,0,0,1,-16.386206,23.043102)"><path id="path6" d="M123.494,244.512c-0.944,-0.381 -3.349,-1.822 -7.871,-4.715c-2.437,-1.559 -5.116,-3.269 -5.953,-3.8c-3.072,-1.95 -8.213,-5.42 -11.046,-7.458c-1.601,-1.151 -3.171,-2.278 -3.49,-2.504c-2.691,-1.909 -6.85,-5.154 -9.952,-7.765c-2.988,-2.515 -4.065,-4.031 -5.128,-7.216c-1.382,-4.141 -2.234,-7.243 -3.047,-11.095c-0.631,-2.992 -0.82,-3.763 -0.943,-3.839c-0.319,-0.197 -0.661,2.763 -0.666,5.771c-0.01,5.089 -0.637,6.054 -2.34,3.599c-7.055,-10.167 -14.948,-23.901 -18.348,-31.926c-2.46,-5.807 -2.546,-7.814 -0.727,-17.129c1.374,-7.039 3.136,-14.618 5.09,-21.894c0.514,-1.915 0.404,-2.172 -1.327,-3.1c-4.933,-2.645 -7.632,-6.226 -9.875,-13.106c-0.816,-2.502 -2.037,-7.814 -2.282,-9.922c-0.27,-2.326 -0.365,-3.035 -0.419,-3.122c-0.283,-0.457 -0.342,-8.678 -0.074,-10.239c1.335,-7.775 6.493,-12.545 14.039,-12.983c1.795,-0.104 1.635,0.417 1.585,-5.168c-0.124,-13.808 0.037,-19.316 0.67,-22.925c0.529,-3.015 0.939,-5.164 1.059,-5.556c0.078,-0.255 0.342,-1.155 0.585,-2.002c1.815,-6.309 5.533,-13.371 9.774,-18.57c1.385,-1.697 1.783,-2.159 3.079,-3.569c10.341,-11.252 25.924,-18.846 41.258,-20.108c3.27,-0.269 4.535,-0.329 7.011,-0.33c12.925,-0.008 26.08,3.574 35.45,9.653c0.168,0.109 0.774,0.495 1.346,0.858c2.237,1.418 5.425,3.762 6.993,5.142c2.647,2.33 6.743,6.668 8.162,8.646c0.168,0.234 0.662,0.917 1.098,1.519c0.437,0.602 0.853,1.197 0.926,1.323c0.073,0.126 0.487,0.812 0.921,1.524c2.76,4.534 6.144,12.699 6.896,16.641c0.028,0.146 0.205,0.919 0.393,1.72c0.941,3.995 1.487,8.535 1.543,12.832c0.054,4.181 -0.047,12.796 -0.168,14.221c-0.418,4.937 -0.548,4.642 2.071,4.689c1.156,0.021 2.251,0.068 2.433,0.105c0.182,0.037 0.569,0.11 0.86,0.162c4.123,0.738 7.826,4.34 9.399,9.144c1.175,3.586 1.318,11.149 0.321,16.989c-0.068,0.4 -0.16,0.966 -0.203,1.257c-1.572,10.574 -5.483,17.741 -11.7,21.44c-0.837,0.498 -1.565,0.967 -1.619,1.043c-0.25,0.356 0.022,1.75 1.761,9.002c6.307,26.299 6.303,26.374 -2.353,42.201c-1.103,2.016 -5.235,9.164 -6.347,10.98c-8.904,14.533 -9.512,15.19 -10.614,11.482c-0.436,-1.469 -0.565,-1.404 -1.378,0.689c-3.151,8.118 -3.708,8.894 -9.746,13.573c-6.991,5.418 -14.549,10.743 -21.855,15.399c-1.256,0.8 -3.01,1.931 -3.897,2.514c-9.502,6.233 -9.978,6.481 -11.355,5.924Zm-14.608,-56.825c0.322,-0.165 1.273,-0.814 2.115,-1.442c9.502,-7.094 17.942,-7.073 26.713,0.067c3.017,2.456 4.047,2.281 9.195,-1.567c6.014,-4.495 9.138,-8.308 11.534,-14.083c1.024,-2.468 1.137,-2.614 1.846,-2.383c0.494,0.16 0.699,0.354 2.806,2.642c2.211,2.402 2.922,-6.049 1.324,-15.737c-0.655,-3.975 -0.941,-4.221 -4.259,-3.65c-4.623,0.794 -14.337,1.125 -18.344,0.625c-7.791,-0.973 -12.498,-2.452 -16.562,-5.202c-0.927,-0.627 -1.129,-0.631 -2.1,-0.042c-7.772,4.721 -24.159,7.003 -33.981,4.731c-1.727,-0.399 -3.053,-0.461 -3.648,-0.169c-2.409,1.184 -3.262,19.871 -0.922,20.209c0.209,0.03 0.527,-0.357 1.519,-1.847c2.517,-3.782 2.56,-3.785 3.833,-0.242c2.388,6.649 6.746,12.039 13.232,16.366c3.057,2.039 4.329,2.424 5.698,1.723l-0,0Zm13.219,-17.239c-10.12,-0.656 -17.448,-3.856 -22.651,-9.891c-1.759,-2.04 -0.535,-2.398 4.196,-1.228c16.085,3.978 26.504,3.804 43.321,-0.724c4.173,-1.124 4.379,-0.167 0.708,3.286c-6.622,6.228 -15.53,9.209 -25.574,8.558Zm52.246,-24.232c2.772,-2.814 3.66,-5.286 4.976,-13.858c0.19,-1.237 0.574,-3.737 0.854,-5.556c0.421,-2.734 1.295,-7.287 1.974,-10.283c0.595,-2.626 3.044,-7.043 3.598,-6.489c0.171,0.171 0.528,3.472 0.848,7.842c0.306,4.191 0.795,5.712 1.681,5.235c2.475,-1.333 4.749,-6.314 6.106,-13.371c3.289,-17.115 -0.678,-22.907 -10.908,-15.925c-1.805,1.232 -1.958,1.586 -2.048,4.746c-0.162,5.653 -0.291,6.588 -1.385,10.001c-4.69,14.631 -21.566,21.973 -34.702,15.1c-9.005,-4.712 -13.715,-12.347 -14.097,-22.852c-0.163,-4.485 -1.888,-5.558 -8.105,-5.04c-5.095,0.424 -5.582,0.792 -5.709,4.306c-0.858,23.72 -28.394,35.291 -43.425,18.247c-0.87,-0.986 -2.438,-3.012 -2.438,-3.15c0,-0.047 -0.304,-0.53 -0.675,-1.075c-0.663,-0.973 -1.269,-2.261 -1.927,-4.094c-0.67,-1.868 -1.111,-3.183 -1.175,-3.506c-0.295,-1.49 -0.484,-3.74 -0.544,-6.482c-0.109,-4.988 -0.314,-5.291 -5.271,-7.777c-4.502,-2.258 -6.833,-1.683 -8.266,2.038c-0.771,2.003 -1.054,5.981 -0.648,9.113c1.29,9.937 3.859,17.267 6.718,19.158c1.244,0.823 1.522,0.426 2.066,-2.952c0.116,-0.72 0.33,-3.088 0.47,-5.204c0.306,-4.627 0.374,-4.797 1.409,-3.52c1.868,2.304 3.048,5.935 4.209,12.958c0.187,1.128 0.394,2.378 0.462,2.778c0.067,0.4 0.214,1.442 0.325,2.315c0.111,0.873 0.324,2.391 0.472,3.373c0.148,0.982 0.294,1.965 0.324,2.183c0.936,6.789 3.936,12.634 6.485,12.634c0.39,0 0.402,-0.011 2.739,-2.539c4.232,-4.578 8.942,-6.908 26.561,-13.141c5.634,-1.993 5.932,-1.96 7.87,0.864c5.734,8.357 16.032,8.432 22.409,0.164c2.497,-3.237 1.608,-3.249 11.393,0.149c11.665,4.051 16.419,6.187 19.813,8.906c0.83,0.665 2.936,2.762 4.595,4.576c1.417,1.549 1.563,1.555 2.968,0.129Zm-79.042,-28.148c19.915,-3.473 18.774,-31.473 -1.383,-33.941c-18.948,-2.32 -26.831,22.925 -10.054,32.196c3.29,1.818 7.411,2.447 11.437,1.745Zm64.457,-0.054c9.36,-1.914 15.375,-10.643 13.862,-20.118c-1.983,-12.425 -18.338,-18.178 -28.566,-10.05c-14.058,11.172 -3.032,33.795 14.704,30.168Zm-42.086,-28.185c5.067,-1.263 8.918,-1.26 13.194,0.009c1.126,0.334 1.318,0.271 1.739,-0.573c0.492,-0.988 0.459,-1.092 -0.694,-2.208c-3.751,-3.632 -3.952,-6.994 -0.347,-5.821c2.306,0.75 3.054,0.621 5.813,-1.011c7.59,-4.487 21.51,-10.686 25.876,-11.523c2.391,-0.458 4.508,0.381 6.458,2.56c3.618,4.042 2.526,6.163 -3.424,6.653c-4.673,0.385 -4.662,0.42 0.856,2.631c1.091,0.437 2.639,1.073 3.44,1.413c7.037,2.988 8.32,2.994 8.541,0.045c0.282,-3.763 0.233,-20.169 -0.069,-22.803c-0.557,-4.868 -1.103,-7.533 -2.328,-11.377c-3.553,-11.143 -8.939,-18.228 -19.385,-25.499c-7.776,-5.412 -19.369,-9.173 -29.663,-9.623c-30.343,-1.326 -53.818,16.299 -57.907,43.478c-0.547,3.639 -0.869,26.076 -0.389,27.089c0.687,1.448 3.323,0.909 10.456,-2.141c1.014,-0.433 2.408,-0.982 3.1,-1.219c3.735,-1.28 3.643,-1.676 -0.459,-1.99c-5.372,-0.411 -6.818,-1.699 -5.259,-4.686c3.589,-6.878 8.753,-6.058 29.267,4.647c7.991,4.17 8.311,4.266 10.952,3.271c3.21,-1.208 2.43,2.387 -1.342,6.186c-0.847,0.853 -0.893,1.067 -0.402,1.863c0.607,0.984 0.582,0.976 1.978,0.629Z" style="fill:#fff;fill-rule:nonzero;"/></g></g></g></svg>